<?xml version="1.0" encoding="UTF-8" standalone="no"?>
<!-- Created with Inkscape (http://www.inkscape.org/) -->

<svg
   xmlns:dc="http://purl.org/dc/elements/1.1/"
   xmlns:cc="http://creativecommons.org/ns#"
   xmlns:rdf="http://www.w3.org/1999/02/22-rdf-syntax-ns#"
   xmlns:svg="http://www.w3.org/2000/svg"
   xmlns="http://www.w3.org/2000/svg"
   xmlns:sodipodi="http://sodipodi.sourceforge.net/DTD/sodipodi-0.dtd"
   xmlns:inkscape="http://www.inkscape.org/namespaces/inkscape"
   width="329.58658"
   height="165.14941"
   id="svg2"
   version="1.1"
   inkscape:version="0.91+devel+osxmenu r12835"
   viewBox="0 0 329.58658 165.14942"
   sodipodi:docname="authparty.svg">
  <defs
     id="defs4">
    <inkscape:perspective
       sodipodi:type="inkscape:persp3d"
       inkscape:vp_x="114.54977 : 743.37935 : 1"
       inkscape:vp_y="0 : 1000 : 0"
       inkscape:vp_z="613.18046 : 859.41677 : 1"
       inkscape:persp3d-origin="372.04724 : 350.78739 : 1"
       id="perspective5428" />
    <clipPath
       clipPathUnits="userSpaceOnUse"
       id="clipPath16">
      <path
         d="M 0,36 36,36 36,0 0,0 0,36 Z"
         id="path18"
         inkscape:connector-curvature="0" />
    </clipPath>
    <clipPath
       clipPathUnits="userSpaceOnUse"
       id="clipPath28">
      <path
         d="m 3,29 0,-4 c 0,-3.314 2.686,-6 6,-6 l 0,0 c 3.314,0 6,2.686 6,6 l 0,0 0,4 c 0,3.314 -2.686,6 -6,6 l 0,0 C 5.686,35 3,32.314 3,29 m 3,-4 0,4 c 0,1.657 1.344,3 3,3 l 0,0 c 1.656,0 3,-1.343 3,-3 l 0,0 0,-4 c 0,-1.658 -1.344,-3 -3,-3 l 0,0 c -1.656,0 -3,1.342 -3,3"
         id="path30"
         inkscape:connector-curvature="0" />
    </clipPath>
    <clipPath
       clipPathUnits="userSpaceOnUse"
       id="clipPath50">
      <path
         d="M 0,36 36,36 36,0 0,0 0,36 Z"
         id="path52"
         inkscape:connector-curvature="0" />
    </clipPath>
    <clipPath
       clipPathUnits="userSpaceOnUse"
       id="clipPath62">
      <path
         d="M 3,11 3,7 C 3,3.686 5.686,1 9,1 l 0,0 c 3.314,0 6,2.686 6,6 l 0,0 0,4 c 0,3.314 -2.686,6 -6,6 l 0,0 C 5.686,17 3,14.314 3,11 m 3,-4 0,4 c 0,1.657 1.344,3 3,3 l 0,0 c 1.656,0 3,-1.343 3,-3 l 0,0 0,-4 C 12,5.342 10.656,4 9,4 L 9,4 C 7.344,4 6,5.342 6,7"
         id="path64"
         inkscape:connector-curvature="0" />
    </clipPath>
    <clipPath
       clipPathUnits="userSpaceOnUse"
       id="clipPath84">
      <path
         d="M 0,36 36,36 36,0 0,0 0,36 Z"
         id="path86"
         inkscape:connector-curvature="0" />
    </clipPath>
    <clipPath
       clipPathUnits="userSpaceOnUse"
       id="clipPath96">
      <path
         d="m 3,29 0,-4 c 0,-3.314 2.686,-6 6,-6 l 0,0 c 3.314,0 6,2.686 6,6 l 0,0 0,4 c 0,3.314 -2.686,6 -6,6 l 0,0 C 5.686,35 3,32.314 3,29 m 3,-4 0,4 c 0,1.657 1.344,3 3,3 l 0,0 c 1.656,0 3,-1.343 3,-3 l 0,0 0,-4 c 0,-1.658 -1.344,-3 -3,-3 l 0,0 c -1.656,0 -3,1.342 -3,3"
         id="path98"
         inkscape:connector-curvature="0" />
    </clipPath>
    <clipPath
       clipPathUnits="userSpaceOnUse"
       id="clipPath118">
      <path
         d="M 0,36 36,36 36,0 0,0 0,36 Z"
         id="path120"
         inkscape:connector-curvature="0" />
    </clipPath>
    <clipPath
       clipPathUnits="userSpaceOnUse"
       id="clipPath130">
      <path
         d="m 7,6 0,-6 4,0 0,6 C 11,7.105 10.104,8 9,8 L 9,8 C 7.896,8 7,7.105 7,6"
         id="path132"
         inkscape:connector-curvature="0" />
    </clipPath>
    <clipPath
       clipPathUnits="userSpaceOnUse"
       id="clipPath140">
      <path
         d="M 0,36 36,36 36,0 0,0 0,36 Z"
         id="path142"
         inkscape:connector-curvature="0" />
    </clipPath>
    <clipPath
       clipPathUnits="userSpaceOnUse"
       id="clipPath152">
      <path
         d="m 7,36 0,-6 c 0,-1.105 0.896,-2 2,-2 l 0,0 c 1.104,0 2,0.895 2,2 l 0,0 0,6 -4,0 z"
         id="path154"
         inkscape:connector-curvature="0" />
    </clipPath>
    <clipPath
       clipPathUnits="userSpaceOnUse"
       id="clipPath162">
      <path
         d="M 0,36 36,36 36,0 0,0 0,36 Z"
         id="path164"
         inkscape:connector-curvature="0" />
    </clipPath>
    <clipPath
       clipPathUnits="userSpaceOnUse"
       id="clipPath174">
      <path
         d="m 21,20 0,-4 c 0,-3.314 2.686,-6 6,-6 l 0,0 c 3.314,0 6,2.686 6,6 l 0,0 0,4 c 0,3.314 -2.686,6 -6,6 l 0,0 c -3.314,0 -6,-2.686 -6,-6 m 3,-4 0,4 c 0,1.657 1.344,3 3,3 l 0,0 c 1.656,0 3,-1.343 3,-3 l 0,0 0,-4 c 0,-1.658 -1.344,-3 -3,-3 l 0,0 c -1.656,0 -3,1.342 -3,3"
         id="path176"
         inkscape:connector-curvature="0" />
    </clipPath>
    <clipPath
       clipPathUnits="userSpaceOnUse"
       id="clipPath196">
      <path
         d="M 0,36 36,36 36,0 0,0 0,36 Z"
         id="path198"
         inkscape:connector-curvature="0" />
    </clipPath>
    <clipPath
       clipPathUnits="userSpaceOnUse"
       id="clipPath208">
      <path
         d="m 30,36 0,-2 c 0,-1.658 -1.344,-3 -3,-3 l 0,0 c -1.656,0 -3,1.342 -3,3 l 0,0 0,2 -3,0 0,-2 c 0,-3.314 2.686,-6 6,-6 l 0,0 c 3.314,0 6,2.686 6,6 l 0,0 0,2 -3,0 z"
         id="path210"
         inkscape:connector-curvature="0" />
    </clipPath>
    <clipPath
       clipPathUnits="userSpaceOnUse"
       id="clipPath226">
      <path
         d="M 0,36 36,36 36,0 0,0 0,36 Z"
         id="path228"
         inkscape:connector-curvature="0" />
    </clipPath>
    <clipPath
       clipPathUnits="userSpaceOnUse"
       id="clipPath238">
      <path
         d="m 21,2 0,-2 3,0 0,2 c 0,1.658 1.344,3 3,3 l 0,0 c 1.656,0 3,-1.342 3,-3 l 0,0 0,-2 3,0 0,2 c 0,3.314 -2.686,6 -6,6 l 0,0 C 23.686,8 21,5.314 21,2"
         id="path240"
         inkscape:connector-curvature="0" />
    </clipPath>
    <clipPath
       clipPathUnits="userSpaceOnUse"
       id="clipPath256">
      <path
         d="M 0,36 36,36 36,0 0,0 0,36 Z"
         id="path258"
         inkscape:connector-curvature="0" />
    </clipPath>
    <clipPath
       clipPathUnits="userSpaceOnUse"
       id="clipPath268">
      <path
         d="M 25,15 25,3 c 0,-1.105 0.896,-2 2,-2 l 0,0 c 1.104,0 2,0.895 2,2 l 0,0 0,12 c 0,1.105 -0.896,2 -2,2 l 0,0 c -1.104,0 -2,-0.895 -2,-2"
         id="path270"
         inkscape:connector-curvature="0" />
    </clipPath>
    <clipPath
       clipPathUnits="userSpaceOnUse"
       id="clipPath278">
      <path
         d="M 0,36 36,36 36,0 0,0 0,36 Z"
         id="path280"
         inkscape:connector-curvature="0" />
    </clipPath>
    <clipPath
       clipPathUnits="userSpaceOnUse"
       id="clipPath290">
      <path
         d="m 7.125,24 0,-12 c 0,-1.105 0.896,-2 2,-2 l 0,0 c 1.104,0 2,0.895 2,2 l 0,0 0,12 c 0,1.105 -0.896,2 -2,2 l 0,0 c -1.104,0 -2,-0.895 -2,-2"
         id="path292"
         inkscape:connector-curvature="0" />
    </clipPath>
    <clipPath
       clipPathUnits="userSpaceOnUse"
       id="clipPath300">
      <path
         d="M 0,36 36,36 36,0 0,0 0,36 Z"
         id="path302"
         inkscape:connector-curvature="0" />
    </clipPath>
    <clipPath
       clipPathUnits="userSpaceOnUse"
       id="clipPath312">
      <path
         d="m 25,33 0,-12 c 0,-1.105 0.896,-2 2,-2 l 0,0 c 1.104,0 2,0.895 2,2 l 0,0 0,12 c 0,1.105 -0.896,2 -2,2 l 0,0 c -1.104,0 -2,-0.895 -2,-2"
         id="path314"
         inkscape:connector-curvature="0" />
    </clipPath>
    <filter
       x="-0.25"
       y="-0.25"
       width="1.5"
       height="1.5"
       inkscape:menu-tooltip="Creates colorizable blotches which smoothly flow over the edges of the lines at their crossings"
       inkscape:menu="Protrusions"
       inkscape:label="Chewing Gum"
       style="color-interpolation-filters:sRGB"
       id="filter5414">
      <feFlood
         result="result4"
         flood-color="rgb(253,112,174)"
         flood-opacity="1"
         id="feFlood5416" />
      <feGaussianBlur
         result="result1"
         in="SourceAlpha"
         stdDeviation="15"
         id="feGaussianBlur5418" />
      <feComposite
         in2="result4"
         in="result1"
         result="result3"
         k4="-2"
         k2="4"
         operator="arithmetic"
         id="feComposite5420"
         k1="0"
         k3="0" />
      <feColorMatrix
         result="result2"
         values="1 0 0 0 0 0 1 0 0 0 0 0 1 0 0 0 0 0 10 -3"
         id="feColorMatrix5422" />
      <feComposite
         operator="in"
         in="result4"
         result="fbSourceGraphic"
         in2="result2"
         id="feComposite5424" />
      <feBlend
         in2="SourceGraphic"
         in="fbSourceGraphic"
         mode="normal"
         result="result5"
         id="feBlend5426" />
    </filter>
  </defs>
  <sodipodi:namedview
     id="base"
     pagecolor="#ffffff"
     bordercolor="#666666"
     borderopacity="1.0"
     inkscape:pageopacity="0.0"
     inkscape:pageshadow="2"
     inkscape:zoom="1.5476633"
     inkscape:cx="167.35423"
     inkscape:cy="66.060879"
     inkscape:document-units="px"
     inkscape:current-layer="layer1"
     showgrid="false"
     inkscape:window-width="1280"
     inkscape:window-height="730"
     inkscape:window-x="0"
     inkscape:window-y="23"
     inkscape:window-maximized="0"
     fit-margin-top="0"
     fit-margin-left="0"
     fit-margin-right="0"
     fit-margin-bottom="0" />
  <metadata
     id="metadata7">
    <rdf:RDF>
      <cc:Work
         rdf:about="">
        <dc:format>image/svg+xml</dc:format>
        <dc:type
           rdf:resource="http://purl.org/dc/dcmitype/StillImage" />
        <dc:title></dc:title>
      </cc:Work>
    </rdf:RDF>
  </metadata>
  <g
     inkscape:label="Layer 1"
     inkscape:groupmode="layer"
     id="layer1"
     transform="translate(-98.010861,-98.505291)">
    <g
       style="fill:#ffffff;stroke:none"
       transform="matrix(0.04214245,0,0,-0.04214245,300.0977,473.28655)"
       id="g4425" />
    <g
       id="g4408">
      <rect
         y="98.891479"
         x="98.397049"
         height="164.37704"
         width="328.81421"
         id="rect4324"
         style="opacity:0.89099995;fill:#5e42a6;fill-opacity:1;stroke:#ffffff;stroke-width:0.77237618" />
      <g
         id="text4320"
         style="font-style:normal;font-variant:normal;font-weight:bold;font-stretch:normal;font-size:40px;line-height:125%;font-family:'Adobe Gothic Std';-inkscape-font-specification:'Adobe Gothic Std Bold';letter-spacing:0px;word-spacing:0px;fill:#ffffff;fill-opacity:1;stroke:none;stroke-width:1px;stroke-linecap:butt;stroke-linejoin:miter;stroke-opacity:1">
        <path
           id="path4608"
           style="font-style:normal;font-variant:normal;font-weight:bold;font-stretch:normal;font-family:'Adobe Gothic Std';-inkscape-font-specification:'Adobe Gothic Std Bold';fill:#ffffff"
           d="m 213.34958,177.15927 c 1.44,-0.88 3.44,-1.52 5.48,-1.52 3.24,0 4,1.68 4,3.88 -7.08,0 -12.16,2.68 -12.16,8.4 0,3.6 2.56,6.68 6.68,6.68 2.48,0 4.64,-1 5.92,-2.76 l 0.12,0 0.36,2.32 5.32,0 c -0.24,-1.36 -0.32,-3.32 -0.32,-5.28 l 0,-8.16 c 0,-4.88 -1.88,-9.28 -8.8,-9.28 -3.48,0 -6.24,1 -7.72,1.88 l 1.12,3.84 z m 9.64,9.36 c 0,2.84 -2.32,3.84 -3.72,3.84 -1.48,0 -2.8,-0.92 -2.8,-3.04 0,-3.24 3.32,-4 6.52,-4 l 0,3.2 z"
           inkscape:connector-curvature="0" />
        <path
           id="path4610"
           style="font-style:normal;font-variant:normal;font-weight:bold;font-stretch:normal;font-family:'Adobe Gothic Std';-inkscape-font-specification:'Adobe Gothic Std Bold';fill:#ffffff"
           d="m 246.94271,171.87927 0,13.72 c 0,2.52 -1.72,4.16 -3.64,4.16 -2.44,0 -3.4,-2.12 -3.4,-5.48 l 0,-12.4 -5.92,0 0,13.28 c 0,6.68 2.88,9.44 7.12,9.44 3.44,0 5.48,-1.96 6.4,-3.4 l 0.12,0 0.28,2.96 5.16,0 c -0.08,-1.88 -0.2,-4.16 -0.2,-6.8 l 0,-15.48 -5.92,0 z"
           inkscape:connector-curvature="0" />
        <path
           id="path4612"
           style="font-style:normal;font-variant:normal;font-weight:bold;font-stretch:normal;font-family:'Adobe Gothic Std';-inkscape-font-specification:'Adobe Gothic Std Bold';fill:#ffffff"
           d="m 256.24333,171.87927 0,4.36 2.92,0 0,10.28 c 0,2.48 0.12,8.04 6.52,8.04 1.72,0 3.16,-0.2 3.96,-0.52 l -0.08,-4.52 c -0.6,0.12 -1.08,0.2 -1.92,0.2 -1.8,0 -2.64,-1.12 -2.64,-3.8 l 0,-9.68 4.92,0 0,-4.36 -4.92,0 0,-5.8 -5.84,1.72 0,4.08 -2.92,0 z"
           inkscape:connector-curvature="0" />
        <path
           id="path4614"
           style="font-style:normal;font-variant:normal;font-weight:bold;font-stretch:normal;font-family:'Adobe Gothic Std';-inkscape-font-specification:'Adobe Gothic Std Bold';fill:#ffffff"
           d="m 279.51396,174.55927 0,-12.56 -5.92,0 0,32.16 5.92,0 0,-13.52 c 0,-3.32 2.28,-4.36 3.76,-4.36 2.56,0 3.44,2.2 3.44,5.04 l 0,12.84 5.92,0 0,-13.32 c 0,-6.56 -3.12,-9.44 -7.08,-9.44 -1.92,0 -4.36,0.84 -5.96,3.16 l -0.08,0 z"
           inkscape:connector-curvature="0" />
        <path
           id="path4616"
           style="font-style:normal;font-variant:normal;font-weight:bold;font-stretch:normal;font-family:'Adobe Gothic Std';-inkscape-font-specification:'Adobe Gothic Std Bold';fill:#ffffff"
           d="m 302.89083,171.87927 -5.16,0 c 0.08,2.04 0.16,4.4 0.16,7.28 l 0,23.92 5.92,0 0,-11.08 0.08,0 c 0.96,1.48 2.84,2.6 5.28,2.6 4.52,0 9.16,-3.6 9.16,-11.8 0,-6.84 -3.6,-11.4 -8.48,-11.4 -2.88,0 -5.16,1.24 -6.6,3.52 l -0.08,0 -0.28,-3.04 z m 0.92,9.12 c 0,-2.68 1.8,-4.84 4.08,-4.84 2.92,0 4.44,2.88 4.44,6.84 0,4 -1.56,6.96 -4.56,6.96 -2,0 -3.96,-1.56 -3.96,-4.8 l 0,-4.16 z"
           inkscape:connector-curvature="0" />
        <path
           id="path4618"
           style="font-style:normal;font-variant:normal;font-weight:bold;font-stretch:normal;font-family:'Adobe Gothic Std';-inkscape-font-specification:'Adobe Gothic Std Bold';fill:#ffffff"
           d="m 323.74021,177.15927 c 1.44,-0.88 3.44,-1.52 5.48,-1.52 3.24,0 4,1.68 4,3.88 -7.08,0 -12.16,2.68 -12.16,8.4 0,3.6 2.56,6.68 6.68,6.68 2.48,0 4.64,-1 5.92,-2.76 l 0.12,0 0.36,2.32 5.32,0 c -0.24,-1.36 -0.32,-3.32 -0.32,-5.28 l 0,-8.16 c 0,-4.88 -1.88,-9.28 -8.8,-9.28 -3.48,0 -6.24,1 -7.72,1.88 l 1.12,3.84 z m 9.64,9.36 c 0,2.84 -2.32,3.84 -3.72,3.84 -1.48,0 -2.8,-0.92 -2.8,-3.04 0,-3.24 3.32,-4 6.52,-4 l 0,3.2 z"
           inkscape:connector-curvature="0" />
        <path
           id="path4620"
           style="font-style:normal;font-variant:normal;font-weight:bold;font-stretch:normal;font-family:'Adobe Gothic Std';-inkscape-font-specification:'Adobe Gothic Std Bold';fill:#ffffff"
           d="m 349.61333,175.75927 -0.24,-3.88 -5.08,0 c 0.08,2 0.16,4.2 0.16,6.96 l 0,15.32 5.92,0 0,-11.52 c 0,-3.8 2.04,-5.6 4.72,-5.6 0.6,0 1.08,0.04 1.52,0.12 l 0,-5.64 c -0.4,-0.08 -0.76,-0.12 -1.32,-0.12 -2.08,0 -4.48,1.48 -5.52,4.36 l -0.16,0 z"
           inkscape:connector-curvature="0" />
        <path
           id="path4622"
           style="font-style:normal;font-variant:normal;font-weight:bold;font-stretch:normal;font-family:'Adobe Gothic Std';-inkscape-font-specification:'Adobe Gothic Std Bold';fill:#ffffff"
           d="m 357.96208,171.87927 0,4.36 2.92,0 0,10.28 c 0,2.48 0.12,8.04 6.52,8.04 1.72,0 3.16,-0.2 3.96,-0.52 l -0.08,-4.52 c -0.6,0.12 -1.08,0.2 -1.92,0.2 -1.8,0 -2.64,-1.12 -2.64,-3.8 l 0,-9.68 4.92,0 0,-4.36 -4.92,0 0,-5.8 -5.84,1.72 0,4.08 -2.92,0 z"
           inkscape:connector-curvature="0" />
        <path
           id="path4624"
           style="font-style:normal;font-variant:normal;font-weight:bold;font-stretch:normal;font-family:'Adobe Gothic Std';-inkscape-font-specification:'Adobe Gothic Std Bold';fill:#ffffff"
           d="m 384.79271,183.51927 c -0.32,1.4 -0.68,2.96 -0.92,4.16 l -0.12,0 c -0.28,-1.24 -0.68,-2.8 -1.04,-4.16 l -3.28,-11.64 -6.48,0 7.48,20.48 c 0.16,0.44 0.24,0.76 0.24,1 0,0.44 -1,2.72 -2.96,4.12 -1.04,0.72 -2.16,1.36 -3.12,1.64 l 1.48,5 c 1.32,-0.24 3.6,-1.04 5.76,-3.12 2.52,-2.52 4.4,-6.44 6.88,-13.64 l 5.04,-15.48 -6.16,0 -2.8,11.64 z"
           inkscape:connector-curvature="0" />
      </g>
      <path
         id="node2"
         d="m 172.56836,149.16211 -29.06055,8.45117 0,27.21875 c 0,6.49967 1.70865,12.88989 5.19141,18.36914 5.61234,8.8289 13.9523,13.06435 23.71289,14.92774 9.7606,-1.86339 18.23532,-6.09884 23.84766,-14.92774 3.48275,-5.47925 5.36718,-11.89166 5.36718,-18.36914 l 0,-27.21875 -29.05859,-8.45117 z m 24.9707,3.70508 0.36133,0.10547 0,-0.10547 -0.36133,0 z m -24.9707,3.73437 1.87891,0.54688 c -3.27386,2.43383 -6.08947,4.565 -6.11133,4.71679 -0.0154,0.10689 0.30988,0.12465 0.70312,0.0449 2.05787,-0.46713 7.94957,1.22807 10.13477,2.90625 l 0.9082,0.70312 5.12109,-3.76172 c 0.62702,-0.46416 0.93635,-0.67323 1.46094,-1.05664 l 8.69532,2.5293 0,12.97851 c -5.04579,3.84192 -11.09695,8.36021 -12.66016,9.375 -1.58898,0.99822 -2.69649,1.4945 -3.92578,1.69922 -3.33675,0.63742 -6.70082,-0.42084 -8.74024,-2.73242 -1.73061,-1.99442 -3.41162,-2.64607 -5.41992,-2.14453 -2.91701,0.75242 -4.62564,3.72543 -3.70117,6.39453 0.7037,2.11922 3.33325,4.67902 6.94922,6.83594 1.47995,0.89487 5.02954,1.81435 7.61719,2.02344 3.53806,0.23687 7.10438,-0.47658 10.48046,-2.14454 0.82217,-0.41223 4.70234,-3.19859 8.98243,-6.3496 -0.61066,3.47283 -1.89043,6.82322 -3.79297,9.8164 -4.40171,6.92442 -11.04603,10.24755 -18.70117,11.70899 -1.60946,-0.30726 -3.16649,-0.70344 -4.66797,-1.19141 4.50767,-3.30938 8.81756,-6.54295 8.8457,-6.73828 0.0154,-0.10687 -0.30793,-0.12654 -0.70117,-0.0469 -2.03116,0.47098 -7.98099,-1.20379 -10.00977,-2.83203 -0.44238,-0.33638 -0.91461,-0.65061 -1.02148,-0.66601 -0.13357,-0.0193 -2.47211,1.63537 -5.22266,3.69336 -0.63406,0.46937 -1.05968,0.77312 -1.5625,1.13867 -1.5754,-1.42718 -3.00725,-3.09606 -4.25976,-5.06641 -2.10258,-3.30788 -3.37242,-7.04073 -3.84961,-10.9082 0.44393,-0.33938 0.78358,-0.60289 1.32031,-1.00977 10.67758,-8.06065 12.57661,-9.31493 14.87109,-9.7207 3.33674,-0.63743 6.7008,0.41889 8.74024,2.73047 1.73061,1.99444 3.40969,2.64608 5.41797,2.14453 2.89032,-0.75627 4.62757,-3.72348 3.70312,-6.39258 -0.68856,-2.03523 -3.61238,-5.02064 -6.41992,-6.54297 -2.6511,-1.47255 -6.92506,-2.4694 -10.07031,-2.40429 -2.6834,0.0771 -5.85654,0.90339 -8.55664,2.23242 -0.83652,0.41943 -4.858,3.31326 -9.22852,6.5332 l 0,-12.41406 22.79297,-6.62891 z m -28.76758,51.02735 0,0.0625 0.11719,0 c -0.0378,-0.0212 -0.0805,-0.0408 -0.11719,-0.0625 z"
         style="fill:#ffffff;stroke:none"
         inkscape:connector-curvature="0" />
    </g>
    <g
       id="g4722"
       transform="translate(312.51726,354.99907)" />
    <g
       id="g4724"
       transform="translate(312.51726,354.99907)" />
    <g
       id="g4726"
       transform="translate(312.51726,354.99907)" />
    <g
       id="g4728"
       transform="translate(312.51726,354.99907)" />
    <g
       id="g4730"
       transform="translate(312.51726,354.99907)" />
    <g
       id="g4732"
       transform="translate(312.51726,354.99907)" />
    <g
       id="g4734"
       transform="translate(312.51726,354.99907)" />
    <g
       id="g4736"
       transform="translate(312.51726,354.99907)" />
    <g
       id="g4738"
       transform="translate(312.51726,354.99907)" />
    <g
       id="g4740"
       transform="translate(312.51726,354.99907)" />
    <g
       id="g4742"
       transform="translate(312.51726,354.99907)" />
    <g
       id="g4744"
       transform="translate(312.51726,354.99907)" />
    <g
       id="g4746"
       transform="translate(312.51726,354.99907)" />
    <g
       id="g4748"
       transform="translate(312.51726,354.99907)" />
    <g
       id="g4750"
       transform="translate(312.51726,354.99907)" />
    <path
       style="fill:#000000"
       d=""
       id="path5383"
       inkscape:connector-curvature="0" />
  </g>
</svg>
